<?xml version="1.0" encoding="UTF-8" standalone="no" ?>
<!DOCTYPE svg PUBLIC "-//W3C//DTD SVG 1.1//EN" "http://www.w3.org/Graphics/SVG/1.1/DTD/svg11.dtd">
<svg xmlns="http://www.w3.org/2000/svg" xmlns:xlink="http://www.w3.org/1999/xlink" version="1.1" width="500" height="500" viewBox="0 0 500 500" xml:space="preserve">
<desc>Created with Fabric.js 4.6.0</desc>
<defs>
</defs>
<g transform="matrix(1 0 0 1 250 256.6)" id="GPanaac9dl97e_R5EsQyy"  >
<path style="stroke: rgb(145,254,15); stroke-width: 0; stroke-dasharray: none; stroke-linecap: butt; stroke-dashoffset: 0; stroke-linejoin: miter; stroke-miterlimit: 4; fill: rgb(214,214,214); fill-rule: nonzero; opacity: 1;" vector-effect="non-scaling-stroke"  transform=" translate(0, 0)" d="M 52.13505 -173.03873 C 139.29295 -173.03873 167.3287 -101.80536 167.3287 -14.647459999999995 C 167.3287 72.51044 83.68222 173.03874000000002 -3.475670000000008 173.03874000000002 C -90.63357 173.03874000000002 -167.3287 60.59385000000002 -167.3287 -26.564039999999977 C -167.3287 -113.72193999999998 -35.02284 -173.03871999999998 52.13506000000001 -173.03871999999998 z" stroke-linecap="round" />
</g>
<g transform="matrix(0.98 0.19 -0.19 0.98 310.58 250)" id="0OzPNZTraeGcnuUFUXuX6"  >
<g style="" vector-effect="non-scaling-stroke"   >
		<g transform="matrix(0.91 0.33 -0.33 0.91 35.47 -67.92)" id="2MPoe54R9rwTGG_gOpb4K"  >
<path style="stroke: rgb(0,0,0); stroke-width: 8; stroke-dasharray: none; stroke-linecap: butt; stroke-dashoffset: 0; stroke-linejoin: miter; stroke-miterlimit: 4; fill: rgb(244,209,59); fill-rule: nonzero; opacity: 1;" vector-effect="non-scaling-stroke"  transform=" translate(0, 0)" d="M -70 -60 L 70 0 L -70 60 z" stroke-linecap="round" />
</g>
		<g transform="matrix(0.89 0.32 -0.32 0.89 -65.34 3.95)" id="UuGgS08465TauW7wVLNFb"  >
<path style="stroke: rgb(0,0,0); stroke-width: 8; stroke-dasharray: none; stroke-linecap: butt; stroke-dashoffset: 0; stroke-linejoin: miter; stroke-miterlimit: 4; fill: rgb(255,255,255); fill-opacity: 0; fill-rule: nonzero; opacity: 1;" vector-effect="non-scaling-stroke"  transform=" translate(0, 0)" d="M -2.64846 157.74313 L 2.6484699999999997 -157.74311999999998" stroke-linecap="round" />
</g>
</g>
</g>
<g transform="matrix(0.97 0 0 0.97 211.64 202.95)" id="3q9WpIunOhXH785dchU8M"  >
<path style="stroke: rgb(99,15,81); stroke-width: 0; stroke-dasharray: none; stroke-linecap: butt; stroke-dashoffset: 0; stroke-linejoin: miter; stroke-miterlimit: 4; fill: rgb(214,214,214); fill-rule: nonzero; opacity: 1;" vector-effect="non-scaling-stroke"  transform=" translate(0, 0)" d="M 0 -81.42999 C 44.94935 -81.42999 81.42999 -44.94935 81.42999 0 C 81.42999 44.94935 44.94935 81.42999 0 81.42999 C -44.94935 81.42999 -81.42999 44.94935 -81.42999 0 C -81.42999 -44.94935 -44.94935 -81.42999 0 -81.42999 z" stroke-linecap="round" />
</g>
<g transform="matrix(1 0 0 1 265.02 194.52)" id="rAjjcsYgkjfzQL6ajbohw"  >
<path style="stroke: rgb(0,0,0); stroke-width: 1; stroke-dasharray: none; stroke-linecap: butt; stroke-dashoffset: 0; stroke-linejoin: miter; stroke-miterlimit: 4; fill: rgb(244,209,59); fill-rule: nonzero; opacity: 1;" vector-effect="non-scaling-stroke"  transform=" translate(0, 0)" d="M 21.84707 -59.58292 L -51.14201 49.652429999999995 L 21.847070000000002 59.582919999999994 L 43.63207 34.756699999999995 L 51.141999999999996 7.325469999999996 L 47.666329999999995 -17.874880000000005 L 39.22541999999999 -40.21847 z" stroke-linecap="round" />
</g>
<g transform="matrix(1.08 0 0 1.08 219.59 191.42)" id="KD-kE4FEHEaeTlFSL5TqW"  >
<path style="stroke: rgb(0,0,0); stroke-width: 18; stroke-dasharray: none; stroke-linecap: butt; stroke-dashoffset: 0; stroke-linejoin: miter; stroke-miterlimit: 4; fill: none; fill-rule: nonzero; opacity: 1;" vector-effect="non-scaling-stroke"  transform=" translate(0, 0)" d="M 0 -81.42999 C 44.94935 -81.42999 81.42999 -44.94935 81.42999 0 C 81.42999 44.94935 44.94935 81.42999 0 81.42999 C -44.94935 81.42999 -81.42999 44.94935 -81.42999 0 C -81.42999 -44.94935 -44.94935 -81.42999 0 -81.42999 z" stroke-linecap="round" />
</g>
<g transform="matrix(1 0 0 1 256.45 276.32)" id="9AxBAKC5WiQU3vp3A6PWA"  >
<path style="stroke: rgb(0,0,0); stroke-width: 1; stroke-dasharray: none; stroke-linecap: butt; stroke-dashoffset: 0; stroke-linejoin: miter; stroke-miterlimit: 4; fill: rgb(255,255,255); fill-opacity: 0; fill-rule: nonzero; opacity: 1;" vector-effect="non-scaling-stroke"  transform=" translate(0, 0)" d="M 0 0" stroke-linecap="round" />
</g>
<g transform="matrix(1 0 0 1 244.29 333.3)" id="8Fyg7SC6xF5yDyqPzLN9O"  >
<path style="stroke: rgb(0,0,0); stroke-width: 32; stroke-dasharray: none; stroke-linecap: butt; stroke-dashoffset: 0; stroke-linejoin: miter; stroke-miterlimit: 4; fill: rgb(255,255,255); fill-opacity: 0; fill-rule: nonzero; opacity: 1;" vector-effect="non-scaling-stroke"  transform=" translate(0, 0)" d="M -9.68222 -56.35551 L 9.682230000000002 56.35551" stroke-linecap="round" />
</g>
<g transform="matrix(1 0 0 1 243.05 207.56)" id="tZtTqHGrSkPlNXhHQAVwA"  >
<path style="stroke: rgb(0,0,0); stroke-width: 18; stroke-dasharray: none; stroke-linecap: butt; stroke-dashoffset: 0; stroke-linejoin: miter; stroke-miterlimit: 4; fill: rgb(255,255,255); fill-opacity: 0; fill-rule: nonzero; opacity: 1;" vector-effect="non-scaling-stroke"  transform=" translate(0, 0)" d="M -46.42502 72.1219 L 23.03644 -37.23087000000001 L 46.42503 -72.12190000000001" stroke-linecap="round" />
</g>
<g transform="matrix(1 0 0 1 254.04 243.87)" id="Irk1Nna_qkCTyEOkOWYAd"  >
<path style="stroke: rgb(0,0,0); stroke-width: 18; stroke-dasharray: none; stroke-linecap: butt; stroke-dashoffset: 0; stroke-linejoin: miter; stroke-miterlimit: 4; fill: rgb(255,255,255); fill-opacity: 0; fill-rule: nonzero; opacity: 1;" vector-effect="non-scaling-stroke"  transform=" translate(0, 0)" d="M -35.43297 -3.72393 L 35.43297 3.72393" stroke-linecap="round" />
</g>
</svg>