<?xml version="1.0" encoding="UTF-8" standalone="no" ?>
<!DOCTYPE svg PUBLIC "-//W3C//DTD SVG 1.1//EN" "http://www.w3.org/Graphics/SVG/1.1/DTD/svg11.dtd">
<svg xmlns="http://www.w3.org/2000/svg" xmlns:xlink="http://www.w3.org/1999/xlink" version="1.1" width="640" height="400" viewBox="0 0 640 400" xml:space="preserve">
<desc>Created with Fabric.js 4.6.0</desc>
<defs>
</defs>
<g transform="matrix(1.59 0 0 1 320.35 214.35)" id="jgUcFDeXx8ZMJGhRz3PDd"  >
<path style="stroke: rgb(196,86,43); stroke-width: 0; stroke-dasharray: none; stroke-linecap: butt; stroke-dashoffset: 0; stroke-linejoin: miter; stroke-miterlimit: 4; fill: rgb(83,118,83); fill-rule: nonzero; opacity: 1;" vector-effect="non-scaling-stroke"  transform=" translate(0, 0)" d="M -188.45854 -171.36048 L 188.89993 -168.65939 L 188.89993 171.34061 L 151.11994 91.34061 L 113.33995000000002 171.34061 L 75.55996000000002 91.34061 L 37.77997000000002 171.34061 L -0.000019999999977926564 91.34061 L -37.780009999999976 171.34061 L -75.55999999999997 91.34061 L -113.33998999999997 171.34061 L -151.11997999999997 91.34061 L -188.89996999999997 171.36048 z" stroke-linecap="round" />
</g>
<g transform="matrix(1.59 0 0 1 320.7 177.43)" id="jxpvHNltNLc_Zfk7tUdeg"  >
<path style="stroke: rgb(196,86,43); stroke-width: 0; stroke-dasharray: none; stroke-linecap: butt; stroke-dashoffset: 0; stroke-linejoin: miter; stroke-miterlimit: 4; fill: rgb(137,191,137); fill-rule: nonzero; opacity: 1;" vector-effect="non-scaling-stroke"  transform=" translate(0, 0)" d="M -188.89993 -128.63024 C -188.89993 -151.48361 -177.23453 -170.00993 -162.84453000000002 -170.00993 L 160.49421999999998 -170.00993 L 160.49421999999998 -170.00993 C 168.02787999999998 -170.00993 175.25297999999998 -165.25704 180.58007999999998 -156.79685 C 185.90717999999998 -148.33665000000002 188.89991999999998 -136.86217 188.89991999999998 -124.89764000000001 L 188.89991999999998 169.99007 L 151.11992999999998 89.99007 L 113.33993999999998 169.99007 L 75.55994999999999 89.99007 L 37.77995999999999 169.99007 L -0.00003000000000952241 89.99007 L -37.78002000000001 169.99007 L -75.56001 89.99007 L -113.34 169.99007 L -151.11999 89.99007 L -188.89998 170.00994 z" stroke-linecap="round" />
</g>
<g transform="matrix(1 0 0 1 616.69 187.07)" style="" id="gd-y5U6a4J7XDNqcFPhog"  >
		<text xml:space="preserve" font-family="Creepster" font-size="174" font-style="normal" font-weight="700" letter-spacing="0.348" line-height="1" style="stroke: none; stroke-width: 1; stroke-dasharray: none; stroke-linecap: butt; stroke-dashoffset: 0; stroke-linejoin: miter; stroke-miterlimit: 4; fill: rgb(250,250,250); fill-rule: nonzero; opacity: 1; white-space: pre;" ><tspan x="-572.16" y="26.4" >S</tspan><tspan x="-496.88" y="26.4" >t</tspan><tspan x="-418.19" y="26.4" >a</tspan><tspan x="-339.34" y="26.4" >b</tspan><tspan x="-258.28" y="26.4" >A</tspan><tspan x="-177.05" y="26.4" >p</tspan><tspan x="-92.76" y="26.4" >p</tspan></text>
</g>
</svg>